<mxfile host="app.diagrams.net" modified="2024-01-18T14:22:51.684Z" agent="Mozilla/5.0 (Windows NT 10.0; Win64; x64) AppleWebKit/537.36 (KHTML, like Gecko) Chrome/120.0.0.0 Safari/537.36" etag="fjFzLum5TSdseSlsAAq0" version="22.1.21" type="google">
  <diagram name="Page-1" id="HYOMEYhp4u_rswwWf5U5">
    <mxGraphModel grid="1" page="1" gridSize="10" guides="1" tooltips="1" connect="1" arrows="1" fold="1" pageScale="1" pageWidth="10000" pageHeight="10000" math="0" shadow="0">
      <root>
        <mxCell id="0" />
        <mxCell id="1" parent="0" />
        <mxCell id="A1cnm3-KWDeCmwyzPE66-7" style="edgeStyle=orthogonalEdgeStyle;rounded=0;orthogonalLoop=1;jettySize=auto;html=1;exitX=0.5;exitY=1;exitDx=0;exitDy=0;entryX=0.5;entryY=0;entryDx=0;entryDy=0;" edge="1" parent="1" source="A1cnm3-KWDeCmwyzPE66-2" target="A1cnm3-KWDeCmwyzPE66-3">
          <mxGeometry relative="1" as="geometry" />
        </mxCell>
        <mxCell id="A1cnm3-KWDeCmwyzPE66-2" value="&lt;font style=&quot;font-size: 20px;&quot;&gt;Start&lt;/font&gt;" style="ellipse;whiteSpace=wrap;html=1;fillColor=#d5e8d4;strokeColor=#82b366;" vertex="1" parent="1">
          <mxGeometry x="360" y="80" width="120" height="80" as="geometry" />
        </mxCell>
        <mxCell id="A1cnm3-KWDeCmwyzPE66-9" style="edgeStyle=orthogonalEdgeStyle;rounded=0;orthogonalLoop=1;jettySize=auto;html=1;exitX=1;exitY=0.5;exitDx=0;exitDy=0;entryX=0;entryY=0.5;entryDx=0;entryDy=0;" edge="1" parent="1" source="A1cnm3-KWDeCmwyzPE66-3" target="A1cnm3-KWDeCmwyzPE66-4">
          <mxGeometry relative="1" as="geometry" />
        </mxCell>
        <mxCell id="A1cnm3-KWDeCmwyzPE66-10" style="edgeStyle=orthogonalEdgeStyle;rounded=0;orthogonalLoop=1;jettySize=auto;html=1;exitX=0;exitY=0.5;exitDx=0;exitDy=0;entryX=1;entryY=0.5;entryDx=0;entryDy=0;" edge="1" parent="1" source="A1cnm3-KWDeCmwyzPE66-3" target="A1cnm3-KWDeCmwyzPE66-6">
          <mxGeometry relative="1" as="geometry" />
        </mxCell>
        <mxCell id="A1cnm3-KWDeCmwyzPE66-11" style="edgeStyle=orthogonalEdgeStyle;rounded=0;orthogonalLoop=1;jettySize=auto;html=1;exitX=0.5;exitY=1;exitDx=0;exitDy=0;entryX=0.5;entryY=0;entryDx=0;entryDy=0;" edge="1" parent="1" source="A1cnm3-KWDeCmwyzPE66-3" target="A1cnm3-KWDeCmwyzPE66-5">
          <mxGeometry relative="1" as="geometry" />
        </mxCell>
        <mxCell id="A1cnm3-KWDeCmwyzPE66-3" value="menu" style="rhombus;whiteSpace=wrap;html=1;fillColor=#b1ddf0;strokeColor=#10739e;" vertex="1" parent="1">
          <mxGeometry x="380" y="200" width="80" height="80" as="geometry" />
        </mxCell>
        <mxCell id="A1cnm3-KWDeCmwyzPE66-16" style="edgeStyle=orthogonalEdgeStyle;rounded=0;orthogonalLoop=1;jettySize=auto;html=1;exitX=1;exitY=0.5;exitDx=0;exitDy=0;entryX=0;entryY=0.5;entryDx=0;entryDy=0;" edge="1" parent="1" source="A1cnm3-KWDeCmwyzPE66-4" target="A1cnm3-KWDeCmwyzPE66-15">
          <mxGeometry relative="1" as="geometry" />
        </mxCell>
        <mxCell id="A1cnm3-KWDeCmwyzPE66-4" value="Log in" style="shape=parallelogram;perimeter=parallelogramPerimeter;whiteSpace=wrap;html=1;fixedSize=1;fillColor=#fff2cc;strokeColor=#d6b656;" vertex="1" parent="1">
          <mxGeometry x="520" y="210" width="120" height="60" as="geometry" />
        </mxCell>
        <mxCell id="A1cnm3-KWDeCmwyzPE66-38" style="edgeStyle=orthogonalEdgeStyle;rounded=0;orthogonalLoop=1;jettySize=auto;html=1;exitX=0.5;exitY=1;exitDx=0;exitDy=0;entryX=0.5;entryY=0;entryDx=0;entryDy=0;" edge="1" parent="1" source="A1cnm3-KWDeCmwyzPE66-5" target="A1cnm3-KWDeCmwyzPE66-37">
          <mxGeometry relative="1" as="geometry" />
        </mxCell>
        <mxCell id="A1cnm3-KWDeCmwyzPE66-5" value="Sign up" style="shape=parallelogram;perimeter=parallelogramPerimeter;whiteSpace=wrap;html=1;fixedSize=1;fillColor=#fff2cc;strokeColor=#d6b656;" vertex="1" parent="1">
          <mxGeometry x="360" y="330" width="120" height="60" as="geometry" />
        </mxCell>
        <mxCell id="A1cnm3-KWDeCmwyzPE66-14" style="edgeStyle=orthogonalEdgeStyle;rounded=0;orthogonalLoop=1;jettySize=auto;html=1;exitX=0;exitY=0.5;exitDx=0;exitDy=0;entryX=1;entryY=0.5;entryDx=0;entryDy=0;" edge="1" parent="1" source="A1cnm3-KWDeCmwyzPE66-6" target="A1cnm3-KWDeCmwyzPE66-13">
          <mxGeometry relative="1" as="geometry" />
        </mxCell>
        <mxCell id="A1cnm3-KWDeCmwyzPE66-6" value="Exit" style="shape=parallelogram;perimeter=parallelogramPerimeter;whiteSpace=wrap;html=1;fixedSize=1;fillColor=#fff2cc;strokeColor=#d6b656;" vertex="1" parent="1">
          <mxGeometry x="200" y="210" width="120" height="60" as="geometry" />
        </mxCell>
        <mxCell id="A1cnm3-KWDeCmwyzPE66-57" style="edgeStyle=orthogonalEdgeStyle;rounded=0;orthogonalLoop=1;jettySize=auto;html=1;exitX=0.5;exitY=1;exitDx=0;exitDy=0;entryX=0;entryY=0.5;entryDx=0;entryDy=0;" edge="1" parent="1" source="A1cnm3-KWDeCmwyzPE66-13" target="A1cnm3-KWDeCmwyzPE66-54">
          <mxGeometry relative="1" as="geometry" />
        </mxCell>
        <mxCell id="A1cnm3-KWDeCmwyzPE66-13" value="exit()" style="rounded=0;whiteSpace=wrap;html=1;fillColor=#dae8fc;strokeColor=#6c8ebf;" vertex="1" parent="1">
          <mxGeometry x="20" y="210" width="120" height="60" as="geometry" />
        </mxCell>
        <mxCell id="A1cnm3-KWDeCmwyzPE66-56" style="edgeStyle=orthogonalEdgeStyle;rounded=0;orthogonalLoop=1;jettySize=auto;html=1;exitX=0.5;exitY=1;exitDx=0;exitDy=0;entryX=1;entryY=0.5;entryDx=0;entryDy=0;" edge="1" parent="1" source="A1cnm3-KWDeCmwyzPE66-15" target="A1cnm3-KWDeCmwyzPE66-54">
          <mxGeometry relative="1" as="geometry" />
        </mxCell>
        <mxCell id="A1cnm3-KWDeCmwyzPE66-15" value="LogIn" style="shape=process;whiteSpace=wrap;html=1;backgroundOutline=1;fillColor=#e1d5e7;strokeColor=#9673a6;" vertex="1" parent="1">
          <mxGeometry x="720" y="210" width="120" height="60" as="geometry" />
        </mxCell>
        <mxCell id="A1cnm3-KWDeCmwyzPE66-30" style="edgeStyle=orthogonalEdgeStyle;rounded=0;orthogonalLoop=1;jettySize=auto;html=1;exitX=0.5;exitY=1;exitDx=0;exitDy=0;entryX=0.5;entryY=0;entryDx=0;entryDy=0;" edge="1" parent="1" source="A1cnm3-KWDeCmwyzPE66-17" target="A1cnm3-KWDeCmwyzPE66-29">
          <mxGeometry relative="1" as="geometry" />
        </mxCell>
        <mxCell id="A1cnm3-KWDeCmwyzPE66-17" value="LogIn" style="shape=process;whiteSpace=wrap;html=1;backgroundOutline=1;fillColor=#e1d5e7;strokeColor=#9673a6;" vertex="1" parent="1">
          <mxGeometry x="1060" y="90" width="120" height="60" as="geometry" />
        </mxCell>
        <mxCell id="A1cnm3-KWDeCmwyzPE66-21" style="edgeStyle=orthogonalEdgeStyle;rounded=0;orthogonalLoop=1;jettySize=auto;html=1;exitX=0.5;exitY=1;exitDx=0;exitDy=0;entryX=0.5;entryY=0;entryDx=0;entryDy=0;" edge="1" parent="1" source="A1cnm3-KWDeCmwyzPE66-18" target="A1cnm3-KWDeCmwyzPE66-19">
          <mxGeometry relative="1" as="geometry" />
        </mxCell>
        <mxCell id="A1cnm3-KWDeCmwyzPE66-18" value="Username" style="shape=parallelogram;perimeter=parallelogramPerimeter;whiteSpace=wrap;html=1;fixedSize=1;fillColor=#fff2cc;strokeColor=#d6b656;" vertex="1" parent="1">
          <mxGeometry x="1060" y="330" width="120" height="60" as="geometry" />
        </mxCell>
        <mxCell id="A1cnm3-KWDeCmwyzPE66-32" style="edgeStyle=orthogonalEdgeStyle;rounded=0;orthogonalLoop=1;jettySize=auto;html=1;exitX=0;exitY=0.5;exitDx=0;exitDy=0;entryX=0;entryY=0.5;entryDx=0;entryDy=0;" edge="1" parent="1" source="A1cnm3-KWDeCmwyzPE66-19" target="A1cnm3-KWDeCmwyzPE66-29">
          <mxGeometry relative="1" as="geometry">
            <Array as="points">
              <mxPoint x="1040" y="480" />
              <mxPoint x="1040" y="240" />
            </Array>
          </mxGeometry>
        </mxCell>
        <mxCell id="A1cnm3-KWDeCmwyzPE66-19" value="Password" style="shape=parallelogram;perimeter=parallelogramPerimeter;whiteSpace=wrap;html=1;fixedSize=1;fillColor=#fff2cc;strokeColor=#d6b656;" vertex="1" parent="1">
          <mxGeometry x="1060" y="450" width="120" height="60" as="geometry" />
        </mxCell>
        <mxCell id="A1cnm3-KWDeCmwyzPE66-26" value="&lt;font style=&quot;font-size: 20px;&quot;&gt;Stop&lt;/font&gt;" style="ellipse;whiteSpace=wrap;html=1;fillColor=#f8cecc;strokeColor=#b85450;" vertex="1" parent="1">
          <mxGeometry x="1180" y="540" width="120" height="80" as="geometry" />
        </mxCell>
        <mxCell id="A1cnm3-KWDeCmwyzPE66-31" style="edgeStyle=orthogonalEdgeStyle;rounded=0;orthogonalLoop=1;jettySize=auto;html=1;exitX=0.5;exitY=1;exitDx=0;exitDy=0;entryX=0.5;entryY=0;entryDx=0;entryDy=0;" edge="1" parent="1" source="A1cnm3-KWDeCmwyzPE66-29" target="A1cnm3-KWDeCmwyzPE66-18">
          <mxGeometry relative="1" as="geometry" />
        </mxCell>
        <mxCell id="A1cnm3-KWDeCmwyzPE66-33" value="True" style="edgeLabel;html=1;align=center;verticalAlign=middle;resizable=0;points=[];" connectable="0" vertex="1" parent="A1cnm3-KWDeCmwyzPE66-31">
          <mxGeometry x="-0.4667" y="1" relative="1" as="geometry">
            <mxPoint as="offset" />
          </mxGeometry>
        </mxCell>
        <mxCell id="A1cnm3-KWDeCmwyzPE66-34" style="edgeStyle=orthogonalEdgeStyle;rounded=0;orthogonalLoop=1;jettySize=auto;html=1;exitX=1;exitY=0.5;exitDx=0;exitDy=0;entryX=0.5;entryY=0;entryDx=0;entryDy=0;" edge="1" parent="1" source="A1cnm3-KWDeCmwyzPE66-29" target="A1cnm3-KWDeCmwyzPE66-26">
          <mxGeometry relative="1" as="geometry">
            <mxPoint x="1240" y="550" as="targetPoint" />
          </mxGeometry>
        </mxCell>
        <mxCell id="A1cnm3-KWDeCmwyzPE66-35" value="False" style="edgeLabel;html=1;align=center;verticalAlign=middle;resizable=0;points=[];" connectable="0" vertex="1" parent="A1cnm3-KWDeCmwyzPE66-34">
          <mxGeometry x="-0.8632" y="2" relative="1" as="geometry">
            <mxPoint as="offset" />
          </mxGeometry>
        </mxCell>
        <mxCell id="A1cnm3-KWDeCmwyzPE66-29" value="&lt;font style=&quot;font-size: 9px;&quot;&gt;while username or password false&lt;/font&gt;" style="rhombus;whiteSpace=wrap;html=1;fillColor=#b1ddf0;strokeColor=#10739e;" vertex="1" parent="1">
          <mxGeometry x="1080" y="200" width="80" height="80" as="geometry" />
        </mxCell>
        <mxCell id="A1cnm3-KWDeCmwyzPE66-40" style="edgeStyle=orthogonalEdgeStyle;rounded=0;orthogonalLoop=1;jettySize=auto;html=1;exitX=0.5;exitY=1;exitDx=0;exitDy=0;entryX=0.5;entryY=0;entryDx=0;entryDy=0;" edge="1" parent="1" source="A1cnm3-KWDeCmwyzPE66-36" target="A1cnm3-KWDeCmwyzPE66-39">
          <mxGeometry relative="1" as="geometry" />
        </mxCell>
        <mxCell id="A1cnm3-KWDeCmwyzPE66-36" value="SignUp" style="shape=process;whiteSpace=wrap;html=1;backgroundOutline=1;fillColor=#e1d5e7;strokeColor=#9673a6;" vertex="1" parent="1">
          <mxGeometry x="1420" y="90" width="120" height="60" as="geometry" />
        </mxCell>
        <mxCell id="A1cnm3-KWDeCmwyzPE66-55" style="edgeStyle=orthogonalEdgeStyle;rounded=0;orthogonalLoop=1;jettySize=auto;html=1;exitX=0.5;exitY=1;exitDx=0;exitDy=0;entryX=0.5;entryY=0;entryDx=0;entryDy=0;" edge="1" parent="1" source="A1cnm3-KWDeCmwyzPE66-37" target="A1cnm3-KWDeCmwyzPE66-54">
          <mxGeometry relative="1" as="geometry" />
        </mxCell>
        <mxCell id="A1cnm3-KWDeCmwyzPE66-37" value="SignUp" style="shape=process;whiteSpace=wrap;html=1;backgroundOutline=1;fillColor=#e1d5e7;strokeColor=#9673a6;" vertex="1" parent="1">
          <mxGeometry x="360" y="450" width="120" height="60" as="geometry" />
        </mxCell>
        <mxCell id="A1cnm3-KWDeCmwyzPE66-43" style="edgeStyle=orthogonalEdgeStyle;rounded=0;orthogonalLoop=1;jettySize=auto;html=1;exitX=0.5;exitY=1;exitDx=0;exitDy=0;entryX=0.5;entryY=0;entryDx=0;entryDy=0;" edge="1" parent="1" source="A1cnm3-KWDeCmwyzPE66-39" target="A1cnm3-KWDeCmwyzPE66-41">
          <mxGeometry relative="1" as="geometry" />
        </mxCell>
        <mxCell id="A1cnm3-KWDeCmwyzPE66-48" value="False" style="edgeLabel;html=1;align=center;verticalAlign=middle;resizable=0;points=[];" connectable="0" vertex="1" parent="A1cnm3-KWDeCmwyzPE66-43">
          <mxGeometry x="-0.36" y="-1" relative="1" as="geometry">
            <mxPoint as="offset" />
          </mxGeometry>
        </mxCell>
        <mxCell id="A1cnm3-KWDeCmwyzPE66-51" style="edgeStyle=orthogonalEdgeStyle;rounded=0;orthogonalLoop=1;jettySize=auto;html=1;exitX=1;exitY=0.5;exitDx=0;exitDy=0;entryX=0.5;entryY=0;entryDx=0;entryDy=0;" edge="1" parent="1" source="A1cnm3-KWDeCmwyzPE66-39" target="A1cnm3-KWDeCmwyzPE66-49">
          <mxGeometry relative="1" as="geometry" />
        </mxCell>
        <mxCell id="A1cnm3-KWDeCmwyzPE66-58" value="True" style="edgeLabel;html=1;align=center;verticalAlign=middle;resizable=0;points=[];" connectable="0" vertex="1" parent="A1cnm3-KWDeCmwyzPE66-51">
          <mxGeometry x="-0.5689" y="-2" relative="1" as="geometry">
            <mxPoint as="offset" />
          </mxGeometry>
        </mxCell>
        <mxCell id="A1cnm3-KWDeCmwyzPE66-39" value="&lt;font style=&quot;font-size: 10px;&quot;&gt;while len(password) &amp;gt; 8&lt;/font&gt;" style="rhombus;whiteSpace=wrap;html=1;fillColor=#b1ddf0;strokeColor=#10739e;" vertex="1" parent="1">
          <mxGeometry x="1440" y="200" width="80" height="80" as="geometry" />
        </mxCell>
        <mxCell id="A1cnm3-KWDeCmwyzPE66-44" style="edgeStyle=orthogonalEdgeStyle;rounded=0;orthogonalLoop=1;jettySize=auto;html=1;exitX=0.5;exitY=1;exitDx=0;exitDy=0;entryX=0.5;entryY=0;entryDx=0;entryDy=0;" edge="1" parent="1" source="A1cnm3-KWDeCmwyzPE66-41" target="A1cnm3-KWDeCmwyzPE66-42">
          <mxGeometry relative="1" as="geometry" />
        </mxCell>
        <mxCell id="A1cnm3-KWDeCmwyzPE66-41" value="Username" style="shape=parallelogram;perimeter=parallelogramPerimeter;whiteSpace=wrap;html=1;fixedSize=1;fillColor=#fff2cc;strokeColor=#d6b656;" vertex="1" parent="1">
          <mxGeometry x="1420" y="330" width="120" height="60" as="geometry" />
        </mxCell>
        <mxCell id="A1cnm3-KWDeCmwyzPE66-46" style="edgeStyle=orthogonalEdgeStyle;rounded=0;orthogonalLoop=1;jettySize=auto;html=1;exitX=0.5;exitY=1;exitDx=0;exitDy=0;entryX=0.5;entryY=0;entryDx=0;entryDy=0;" edge="1" parent="1" source="A1cnm3-KWDeCmwyzPE66-42" target="A1cnm3-KWDeCmwyzPE66-45">
          <mxGeometry relative="1" as="geometry" />
        </mxCell>
        <mxCell id="A1cnm3-KWDeCmwyzPE66-42" value="Password" style="shape=parallelogram;perimeter=parallelogramPerimeter;whiteSpace=wrap;html=1;fixedSize=1;fillColor=#fff2cc;strokeColor=#d6b656;" vertex="1" parent="1">
          <mxGeometry x="1420" y="450" width="120" height="60" as="geometry" />
        </mxCell>
        <mxCell id="A1cnm3-KWDeCmwyzPE66-47" style="edgeStyle=orthogonalEdgeStyle;rounded=0;orthogonalLoop=1;jettySize=auto;html=1;exitX=0;exitY=0.5;exitDx=0;exitDy=0;entryX=0;entryY=0.5;entryDx=0;entryDy=0;" edge="1" parent="1" source="A1cnm3-KWDeCmwyzPE66-45" target="A1cnm3-KWDeCmwyzPE66-39">
          <mxGeometry relative="1" as="geometry">
            <Array as="points">
              <mxPoint x="1400" y="600" />
              <mxPoint x="1400" y="240" />
            </Array>
          </mxGeometry>
        </mxCell>
        <mxCell id="A1cnm3-KWDeCmwyzPE66-45" value="Confirm Password" style="shape=parallelogram;perimeter=parallelogramPerimeter;whiteSpace=wrap;html=1;fixedSize=1;fillColor=#fff2cc;strokeColor=#d6b656;" vertex="1" parent="1">
          <mxGeometry x="1420" y="570" width="120" height="60" as="geometry" />
        </mxCell>
        <mxCell id="A1cnm3-KWDeCmwyzPE66-53" style="edgeStyle=orthogonalEdgeStyle;rounded=0;orthogonalLoop=1;jettySize=auto;html=1;exitX=0.5;exitY=1;exitDx=0;exitDy=0;entryX=0.5;entryY=0;entryDx=0;entryDy=0;" edge="1" parent="1" source="A1cnm3-KWDeCmwyzPE66-49" target="A1cnm3-KWDeCmwyzPE66-52">
          <mxGeometry relative="1" as="geometry" />
        </mxCell>
        <mxCell id="A1cnm3-KWDeCmwyzPE66-49" value="Enter DisplayName" style="shape=parallelogram;perimeter=parallelogramPerimeter;whiteSpace=wrap;html=1;fixedSize=1;fillColor=#fff2cc;strokeColor=#d6b656;" vertex="1" parent="1">
          <mxGeometry x="1600" y="330" width="120" height="60" as="geometry" />
        </mxCell>
        <mxCell id="A1cnm3-KWDeCmwyzPE66-52" value="&lt;font style=&quot;font-size: 20px;&quot;&gt;Stop&lt;/font&gt;" style="ellipse;whiteSpace=wrap;html=1;fillColor=#f8cecc;strokeColor=#b85450;" vertex="1" parent="1">
          <mxGeometry x="1600" y="430" width="120" height="80" as="geometry" />
        </mxCell>
        <mxCell id="A1cnm3-KWDeCmwyzPE66-54" value="&lt;font style=&quot;font-size: 20px;&quot;&gt;Stop&lt;/font&gt;" style="ellipse;whiteSpace=wrap;html=1;fillColor=#f8cecc;strokeColor=#b85450;" vertex="1" parent="1">
          <mxGeometry x="360" y="570" width="120" height="80" as="geometry" />
        </mxCell>
        <mxCell id="A1cnm3-KWDeCmwyzPE66-59" value="" style="shape=link;html=1;rounded=0;width=25;fillColor=#f8cecc;strokeColor=#ff0800;" edge="1" parent="1">
          <mxGeometry width="100" relative="1" as="geometry">
            <mxPoint y="720" as="sourcePoint" />
            <mxPoint x="1930" y="720" as="targetPoint" />
          </mxGeometry>
        </mxCell>
        <mxCell id="A1cnm3-KWDeCmwyzPE66-65" style="edgeStyle=orthogonalEdgeStyle;rounded=0;orthogonalLoop=1;jettySize=auto;html=1;exitX=0.5;exitY=1;exitDx=0;exitDy=0;entryX=0.5;entryY=0;entryDx=0;entryDy=0;" edge="1" parent="1" source="A1cnm3-KWDeCmwyzPE66-60" target="A1cnm3-KWDeCmwyzPE66-64">
          <mxGeometry relative="1" as="geometry" />
        </mxCell>
        <mxCell id="A1cnm3-KWDeCmwyzPE66-60" value="&lt;font style=&quot;font-size: 20px;&quot;&gt;Start&lt;/font&gt;" style="ellipse;whiteSpace=wrap;html=1;fillColor=#d5e8d4;strokeColor=#82b366;" vertex="1" parent="1">
          <mxGeometry x="360" y="840" width="120" height="80" as="geometry" />
        </mxCell>
        <mxCell id="A1cnm3-KWDeCmwyzPE66-61" value="Flowchart for initial menu" style="text;html=1;strokeColor=none;fillColor=none;align=center;verticalAlign=middle;whiteSpace=wrap;rounded=0;" vertex="1" parent="1">
          <mxGeometry x="380" y="30" width="60" height="30" as="geometry" />
        </mxCell>
        <mxCell id="A1cnm3-KWDeCmwyzPE66-62" value="Flowchart for logging in" style="text;html=1;strokeColor=none;fillColor=none;align=center;verticalAlign=middle;whiteSpace=wrap;rounded=0;" vertex="1" parent="1">
          <mxGeometry x="1090" y="40" width="60" height="30" as="geometry" />
        </mxCell>
        <mxCell id="A1cnm3-KWDeCmwyzPE66-63" value="Flowchart for signing up" style="text;html=1;strokeColor=none;fillColor=none;align=center;verticalAlign=middle;whiteSpace=wrap;rounded=0;" vertex="1" parent="1">
          <mxGeometry x="1450" y="40" width="60" height="30" as="geometry" />
        </mxCell>
        <mxCell id="A1cnm3-KWDeCmwyzPE66-70" style="edgeStyle=orthogonalEdgeStyle;rounded=0;orthogonalLoop=1;jettySize=auto;html=1;exitX=0.5;exitY=1;exitDx=0;exitDy=0;entryX=0.5;entryY=0;entryDx=0;entryDy=0;" edge="1" parent="1" source="A1cnm3-KWDeCmwyzPE66-64" target="A1cnm3-KWDeCmwyzPE66-66">
          <mxGeometry relative="1" as="geometry" />
        </mxCell>
        <mxCell id="A1cnm3-KWDeCmwyzPE66-64" value="while True" style="rhombus;whiteSpace=wrap;html=1;fillColor=#b1ddf0;strokeColor=#10739e;" vertex="1" parent="1">
          <mxGeometry x="380" y="960" width="80" height="80" as="geometry" />
        </mxCell>
        <mxCell id="A1cnm3-KWDeCmwyzPE66-79" style="edgeStyle=orthogonalEdgeStyle;rounded=0;orthogonalLoop=1;jettySize=auto;html=1;exitX=1;exitY=0.5;exitDx=0;exitDy=0;entryX=0;entryY=0.5;entryDx=0;entryDy=0;" edge="1" parent="1" source="A1cnm3-KWDeCmwyzPE66-133" target="A1cnm3-KWDeCmwyzPE66-78">
          <mxGeometry relative="1" as="geometry" />
        </mxCell>
        <mxCell id="A1cnm3-KWDeCmwyzPE66-129" style="edgeStyle=orthogonalEdgeStyle;rounded=0;orthogonalLoop=1;jettySize=auto;html=1;exitX=1;exitY=1;exitDx=0;exitDy=0;entryX=0.5;entryY=0;entryDx=0;entryDy=0;" edge="1" parent="1" source="A1cnm3-KWDeCmwyzPE66-66" target="A1cnm3-KWDeCmwyzPE66-128">
          <mxGeometry relative="1" as="geometry" />
        </mxCell>
        <mxCell id="A1cnm3-KWDeCmwyzPE66-130" value="3" style="edgeLabel;html=1;align=center;verticalAlign=middle;resizable=0;points=[];" connectable="0" vertex="1" parent="A1cnm3-KWDeCmwyzPE66-129">
          <mxGeometry x="0.1184" y="-3" relative="1" as="geometry">
            <mxPoint as="offset" />
          </mxGeometry>
        </mxCell>
        <mxCell id="A1cnm3-KWDeCmwyzPE66-66" value="if input = 1 or 2 or 3 or 4" style="rhombus;whiteSpace=wrap;html=1;fillColor=#b1ddf0;strokeColor=#10739e;" vertex="1" parent="1">
          <mxGeometry x="380" y="1080" width="80" height="80" as="geometry" />
        </mxCell>
        <mxCell id="A1cnm3-KWDeCmwyzPE66-74" value="editDisplayName" style="shape=process;whiteSpace=wrap;html=1;backgroundOutline=1;fillColor=#e1d5e7;strokeColor=#9673a6;" vertex="1" parent="1">
          <mxGeometry x="20" y="1090" width="120" height="60" as="geometry" />
        </mxCell>
        <mxCell id="A1cnm3-KWDeCmwyzPE66-76" value="editUsername" style="shape=process;whiteSpace=wrap;html=1;backgroundOutline=1;fillColor=#e1d5e7;strokeColor=#9673a6;" vertex="1" parent="1">
          <mxGeometry x="260" y="1330" width="120" height="60" as="geometry" />
        </mxCell>
        <mxCell id="A1cnm3-KWDeCmwyzPE66-77" value="editPassword" style="shape=process;whiteSpace=wrap;html=1;backgroundOutline=1;fillColor=#e1d5e7;strokeColor=#9673a6;" vertex="1" parent="1">
          <mxGeometry x="460" y="1330" width="120" height="60" as="geometry" />
        </mxCell>
        <mxCell id="A1cnm3-KWDeCmwyzPE66-78" value="delAccount" style="shape=process;whiteSpace=wrap;html=1;backgroundOutline=1;fillColor=#e1d5e7;strokeColor=#9673a6;" vertex="1" parent="1">
          <mxGeometry x="700" y="1090" width="120" height="60" as="geometry" />
        </mxCell>
        <mxCell id="A1cnm3-KWDeCmwyzPE66-86" style="edgeStyle=orthogonalEdgeStyle;rounded=0;orthogonalLoop=1;jettySize=auto;html=1;exitX=0.5;exitY=1;exitDx=0;exitDy=0;entryX=0.5;entryY=0;entryDx=0;entryDy=0;" edge="1" parent="1" source="A1cnm3-KWDeCmwyzPE66-82" target="A1cnm3-KWDeCmwyzPE66-84">
          <mxGeometry relative="1" as="geometry" />
        </mxCell>
        <mxCell id="A1cnm3-KWDeCmwyzPE66-82" value="editDisplayName" style="shape=process;whiteSpace=wrap;html=1;backgroundOutline=1;fillColor=#e1d5e7;strokeColor=#9673a6;" vertex="1" parent="1">
          <mxGeometry x="880" y="850" width="120" height="60" as="geometry" />
        </mxCell>
        <mxCell id="A1cnm3-KWDeCmwyzPE66-89" style="edgeStyle=orthogonalEdgeStyle;rounded=0;orthogonalLoop=1;jettySize=auto;html=1;exitX=0.5;exitY=1;exitDx=0;exitDy=0;entryX=0.5;entryY=0;entryDx=0;entryDy=0;" edge="1" parent="1" source="A1cnm3-KWDeCmwyzPE66-83" target="A1cnm3-KWDeCmwyzPE66-88">
          <mxGeometry relative="1" as="geometry" />
        </mxCell>
        <mxCell id="A1cnm3-KWDeCmwyzPE66-83" value="displayName = input(&quot;New Display Name: &quot;)" style="shape=parallelogram;perimeter=parallelogramPerimeter;whiteSpace=wrap;html=1;fixedSize=1;fillColor=#fff2cc;strokeColor=#d6b656;" vertex="1" parent="1">
          <mxGeometry x="880" y="1090" width="120" height="60" as="geometry" />
        </mxCell>
        <mxCell id="A1cnm3-KWDeCmwyzPE66-87" style="edgeStyle=orthogonalEdgeStyle;rounded=0;orthogonalLoop=1;jettySize=auto;html=1;exitX=0.5;exitY=1;exitDx=0;exitDy=0;entryX=0.5;entryY=0;entryDx=0;entryDy=0;" edge="1" parent="1" source="A1cnm3-KWDeCmwyzPE66-84" target="A1cnm3-KWDeCmwyzPE66-83">
          <mxGeometry relative="1" as="geometry" />
        </mxCell>
        <mxCell id="A1cnm3-KWDeCmwyzPE66-84" value="displayName" style="shape=parallelogram;perimeter=parallelogramPerimeter;whiteSpace=wrap;html=1;fixedSize=1;fillColor=#ffe6cc;strokeColor=#d79b00;" vertex="1" parent="1">
          <mxGeometry x="880" y="970" width="120" height="60" as="geometry" />
        </mxCell>
        <mxCell id="A1cnm3-KWDeCmwyzPE66-85" style="edgeStyle=orthogonalEdgeStyle;rounded=0;orthogonalLoop=1;jettySize=auto;html=1;exitX=0.5;exitY=1;exitDx=0;exitDy=0;" edge="1" parent="1" source="A1cnm3-KWDeCmwyzPE66-83" target="A1cnm3-KWDeCmwyzPE66-83">
          <mxGeometry relative="1" as="geometry" />
        </mxCell>
        <mxCell id="A1cnm3-KWDeCmwyzPE66-88" value="&lt;font style=&quot;font-size: 20px;&quot;&gt;Stop&lt;/font&gt;" style="ellipse;whiteSpace=wrap;html=1;fillColor=#f8cecc;strokeColor=#b85450;" vertex="1" parent="1">
          <mxGeometry x="880" y="1200" width="120" height="80" as="geometry" />
        </mxCell>
        <mxCell id="A1cnm3-KWDeCmwyzPE66-97" value="" style="edgeStyle=orthogonalEdgeStyle;rounded=0;orthogonalLoop=1;jettySize=auto;html=1;" edge="1" parent="1" source="A1cnm3-KWDeCmwyzPE66-90" target="A1cnm3-KWDeCmwyzPE66-94">
          <mxGeometry relative="1" as="geometry" />
        </mxCell>
        <mxCell id="A1cnm3-KWDeCmwyzPE66-90" value="editUsername" style="shape=process;whiteSpace=wrap;html=1;backgroundOutline=1;fillColor=#e1d5e7;strokeColor=#9673a6;" vertex="1" parent="1">
          <mxGeometry x="1160" y="850" width="120" height="60" as="geometry" />
        </mxCell>
        <mxCell id="A1cnm3-KWDeCmwyzPE66-91" style="edgeStyle=orthogonalEdgeStyle;rounded=0;orthogonalLoop=1;jettySize=auto;html=1;exitX=0.5;exitY=1;exitDx=0;exitDy=0;entryX=0.5;entryY=0;entryDx=0;entryDy=0;" edge="1" parent="1" source="A1cnm3-KWDeCmwyzPE66-92" target="A1cnm3-KWDeCmwyzPE66-96">
          <mxGeometry relative="1" as="geometry" />
        </mxCell>
        <mxCell id="A1cnm3-KWDeCmwyzPE66-92" value="Username = input(&quot;New Username: &quot;)" style="shape=parallelogram;perimeter=parallelogramPerimeter;whiteSpace=wrap;html=1;fixedSize=1;fillColor=#fff2cc;strokeColor=#d6b656;" vertex="1" parent="1">
          <mxGeometry x="1160" y="1090" width="120" height="60" as="geometry" />
        </mxCell>
        <mxCell id="A1cnm3-KWDeCmwyzPE66-93" style="edgeStyle=orthogonalEdgeStyle;rounded=0;orthogonalLoop=1;jettySize=auto;html=1;exitX=0.5;exitY=1;exitDx=0;exitDy=0;entryX=0.5;entryY=0;entryDx=0;entryDy=0;" edge="1" parent="1" source="A1cnm3-KWDeCmwyzPE66-94" target="A1cnm3-KWDeCmwyzPE66-92">
          <mxGeometry relative="1" as="geometry" />
        </mxCell>
        <mxCell id="A1cnm3-KWDeCmwyzPE66-94" value="Username" style="shape=parallelogram;perimeter=parallelogramPerimeter;whiteSpace=wrap;html=1;fixedSize=1;fillColor=#ffe6cc;strokeColor=#d79b00;" vertex="1" parent="1">
          <mxGeometry x="1160" y="970" width="120" height="60" as="geometry" />
        </mxCell>
        <mxCell id="A1cnm3-KWDeCmwyzPE66-95" style="edgeStyle=orthogonalEdgeStyle;rounded=0;orthogonalLoop=1;jettySize=auto;html=1;exitX=0.5;exitY=1;exitDx=0;exitDy=0;" edge="1" parent="1" source="A1cnm3-KWDeCmwyzPE66-92" target="A1cnm3-KWDeCmwyzPE66-92">
          <mxGeometry relative="1" as="geometry" />
        </mxCell>
        <mxCell id="A1cnm3-KWDeCmwyzPE66-96" value="&lt;font style=&quot;font-size: 20px;&quot;&gt;Stop&lt;/font&gt;" style="ellipse;whiteSpace=wrap;html=1;fillColor=#f8cecc;strokeColor=#b85450;" vertex="1" parent="1">
          <mxGeometry x="1160" y="1200" width="120" height="80" as="geometry" />
        </mxCell>
        <mxCell id="A1cnm3-KWDeCmwyzPE66-102" value="" style="edgeStyle=orthogonalEdgeStyle;rounded=0;orthogonalLoop=1;jettySize=auto;html=1;" edge="1" parent="1" source="A1cnm3-KWDeCmwyzPE66-98" target="A1cnm3-KWDeCmwyzPE66-99">
          <mxGeometry relative="1" as="geometry" />
        </mxCell>
        <mxCell id="A1cnm3-KWDeCmwyzPE66-98" value="editPassword" style="shape=process;whiteSpace=wrap;html=1;backgroundOutline=1;fillColor=#e1d5e7;strokeColor=#9673a6;" vertex="1" parent="1">
          <mxGeometry x="1440" y="850" width="120" height="60" as="geometry" />
        </mxCell>
        <mxCell id="A1cnm3-KWDeCmwyzPE66-103" value="" style="edgeStyle=orthogonalEdgeStyle;rounded=0;orthogonalLoop=1;jettySize=auto;html=1;" edge="1" parent="1" source="A1cnm3-KWDeCmwyzPE66-99" target="A1cnm3-KWDeCmwyzPE66-100">
          <mxGeometry relative="1" as="geometry" />
        </mxCell>
        <mxCell id="A1cnm3-KWDeCmwyzPE66-99" value="Enter Password" style="shape=parallelogram;perimeter=parallelogramPerimeter;whiteSpace=wrap;html=1;fixedSize=1;fillColor=#fff2cc;strokeColor=#d6b656;" vertex="1" parent="1">
          <mxGeometry x="1440" y="970" width="120" height="60" as="geometry" />
        </mxCell>
        <mxCell id="A1cnm3-KWDeCmwyzPE66-104" value="" style="edgeStyle=orthogonalEdgeStyle;rounded=0;orthogonalLoop=1;jettySize=auto;html=1;" edge="1" parent="1" source="A1cnm3-KWDeCmwyzPE66-100" target="A1cnm3-KWDeCmwyzPE66-101">
          <mxGeometry relative="1" as="geometry" />
        </mxCell>
        <mxCell id="A1cnm3-KWDeCmwyzPE66-100" value="Password = input(&quot;New Password: &quot;)" style="shape=parallelogram;perimeter=parallelogramPerimeter;whiteSpace=wrap;html=1;fixedSize=1;fillColor=#fff2cc;strokeColor=#d6b656;" vertex="1" parent="1">
          <mxGeometry x="1440" y="1090" width="120" height="60" as="geometry" />
        </mxCell>
        <mxCell id="A1cnm3-KWDeCmwyzPE66-101" value="&lt;font style=&quot;font-size: 20px;&quot;&gt;Stop&lt;/font&gt;" style="ellipse;whiteSpace=wrap;html=1;fillColor=#f8cecc;strokeColor=#b85450;" vertex="1" parent="1">
          <mxGeometry x="1440" y="1200" width="120" height="80" as="geometry" />
        </mxCell>
        <mxCell id="A1cnm3-KWDeCmwyzPE66-107" value="" style="edgeStyle=orthogonalEdgeStyle;rounded=0;orthogonalLoop=1;jettySize=auto;html=1;" edge="1" parent="1" source="A1cnm3-KWDeCmwyzPE66-105" target="A1cnm3-KWDeCmwyzPE66-106">
          <mxGeometry relative="1" as="geometry" />
        </mxCell>
        <mxCell id="A1cnm3-KWDeCmwyzPE66-105" value="delAccount" style="shape=process;whiteSpace=wrap;html=1;backgroundOutline=1;fillColor=#e1d5e7;strokeColor=#9673a6;" vertex="1" parent="1">
          <mxGeometry x="1720" y="850" width="120" height="60" as="geometry" />
        </mxCell>
        <mxCell id="A1cnm3-KWDeCmwyzPE66-109" value="" style="edgeStyle=orthogonalEdgeStyle;rounded=0;orthogonalLoop=1;jettySize=auto;html=1;" edge="1" parent="1" source="A1cnm3-KWDeCmwyzPE66-106" target="A1cnm3-KWDeCmwyzPE66-108">
          <mxGeometry relative="1" as="geometry" />
        </mxCell>
        <mxCell id="A1cnm3-KWDeCmwyzPE66-106" value="Enter Password" style="shape=parallelogram;perimeter=parallelogramPerimeter;whiteSpace=wrap;html=1;fixedSize=1;fillColor=#fff2cc;strokeColor=#d6b656;" vertex="1" parent="1">
          <mxGeometry x="1720" y="970" width="120" height="60" as="geometry" />
        </mxCell>
        <mxCell id="A1cnm3-KWDeCmwyzPE66-111" style="edgeStyle=orthogonalEdgeStyle;rounded=0;orthogonalLoop=1;jettySize=auto;html=1;exitX=0.5;exitY=1;exitDx=0;exitDy=0;entryX=0.5;entryY=0;entryDx=0;entryDy=0;" edge="1" parent="1" source="A1cnm3-KWDeCmwyzPE66-108" target="A1cnm3-KWDeCmwyzPE66-110">
          <mxGeometry relative="1" as="geometry" />
        </mxCell>
        <mxCell id="A1cnm3-KWDeCmwyzPE66-108" value="Clear all files related to account" style="rounded=0;whiteSpace=wrap;html=1;fillColor=#dae8fc;strokeColor=#6c8ebf;" vertex="1" parent="1">
          <mxGeometry x="1720" y="1090" width="120" height="60" as="geometry" />
        </mxCell>
        <mxCell id="A1cnm3-KWDeCmwyzPE66-113" style="edgeStyle=orthogonalEdgeStyle;rounded=0;orthogonalLoop=1;jettySize=auto;html=1;exitX=0.5;exitY=1;exitDx=0;exitDy=0;entryX=0.5;entryY=0;entryDx=0;entryDy=0;" edge="1" parent="1" source="A1cnm3-KWDeCmwyzPE66-110" target="A1cnm3-KWDeCmwyzPE66-112">
          <mxGeometry relative="1" as="geometry" />
        </mxCell>
        <mxCell id="A1cnm3-KWDeCmwyzPE66-110" value="Clear all other data stores related to account" style="rounded=0;whiteSpace=wrap;html=1;fillColor=#dae8fc;strokeColor=#6c8ebf;" vertex="1" parent="1">
          <mxGeometry x="1720" y="1210" width="120" height="60" as="geometry" />
        </mxCell>
        <mxCell id="A1cnm3-KWDeCmwyzPE66-112" value="&lt;font style=&quot;font-size: 20px;&quot;&gt;Stop&lt;/font&gt;" style="ellipse;whiteSpace=wrap;html=1;fillColor=#f8cecc;strokeColor=#b85450;" vertex="1" parent="1">
          <mxGeometry x="1720" y="1320" width="120" height="80" as="geometry" />
        </mxCell>
        <mxCell id="A1cnm3-KWDeCmwyzPE66-119" value="" style="edgeStyle=orthogonalEdgeStyle;rounded=0;orthogonalLoop=1;jettySize=auto;html=1;exitX=0;exitY=0.5;exitDx=0;exitDy=0;entryX=1;entryY=0.5;entryDx=0;entryDy=0;" edge="1" parent="1" source="A1cnm3-KWDeCmwyzPE66-66" target="A1cnm3-KWDeCmwyzPE66-118">
          <mxGeometry relative="1" as="geometry">
            <mxPoint x="380" y="1120" as="sourcePoint" />
            <mxPoint x="160" y="1110" as="targetPoint" />
          </mxGeometry>
        </mxCell>
        <mxCell id="A1cnm3-KWDeCmwyzPE66-120" value="1" style="edgeLabel;html=1;align=center;verticalAlign=middle;resizable=0;points=[];" connectable="0" vertex="1" parent="A1cnm3-KWDeCmwyzPE66-119">
          <mxGeometry x="-0.1392" y="3" relative="1" as="geometry">
            <mxPoint as="offset" />
          </mxGeometry>
        </mxCell>
        <mxCell id="A1cnm3-KWDeCmwyzPE66-121" value="" style="edgeStyle=orthogonalEdgeStyle;rounded=0;orthogonalLoop=1;jettySize=auto;html=1;" edge="1" parent="1" source="A1cnm3-KWDeCmwyzPE66-118" target="A1cnm3-KWDeCmwyzPE66-74">
          <mxGeometry relative="1" as="geometry" />
        </mxCell>
        <mxCell id="A1cnm3-KWDeCmwyzPE66-118" value="Change Display Name" style="shape=parallelogram;perimeter=parallelogramPerimeter;whiteSpace=wrap;html=1;fixedSize=1;fillColor=#ffe6cc;strokeColor=#d79b00;" vertex="1" parent="1">
          <mxGeometry x="200" y="1090" width="120" height="60" as="geometry" />
        </mxCell>
        <mxCell id="A1cnm3-KWDeCmwyzPE66-123" value="" style="edgeStyle=orthogonalEdgeStyle;rounded=0;orthogonalLoop=1;jettySize=auto;html=1;exitX=0;exitY=1;exitDx=0;exitDy=0;entryX=0.5;entryY=0;entryDx=0;entryDy=0;" edge="1" parent="1" source="A1cnm3-KWDeCmwyzPE66-66" target="A1cnm3-KWDeCmwyzPE66-122">
          <mxGeometry relative="1" as="geometry">
            <mxPoint x="400" y="1140" as="sourcePoint" />
            <mxPoint x="270" y="1330" as="targetPoint" />
          </mxGeometry>
        </mxCell>
        <mxCell id="A1cnm3-KWDeCmwyzPE66-131" value="2" style="edgeLabel;html=1;align=center;verticalAlign=middle;resizable=0;points=[];" connectable="0" vertex="1" parent="A1cnm3-KWDeCmwyzPE66-123">
          <mxGeometry x="0.1027" y="2" relative="1" as="geometry">
            <mxPoint as="offset" />
          </mxGeometry>
        </mxCell>
        <mxCell id="A1cnm3-KWDeCmwyzPE66-127" style="edgeStyle=orthogonalEdgeStyle;rounded=0;orthogonalLoop=1;jettySize=auto;html=1;exitX=0.5;exitY=1;exitDx=0;exitDy=0;entryX=0.5;entryY=0;entryDx=0;entryDy=0;" edge="1" parent="1" source="A1cnm3-KWDeCmwyzPE66-122" target="A1cnm3-KWDeCmwyzPE66-76">
          <mxGeometry relative="1" as="geometry" />
        </mxCell>
        <mxCell id="A1cnm3-KWDeCmwyzPE66-122" value="Change Username" style="shape=parallelogram;perimeter=parallelogramPerimeter;whiteSpace=wrap;html=1;fixedSize=1;fillColor=#ffe6cc;strokeColor=#d79b00;" vertex="1" parent="1">
          <mxGeometry x="260" y="1210" width="120" height="60" as="geometry" />
        </mxCell>
        <mxCell id="A1cnm3-KWDeCmwyzPE66-132" style="edgeStyle=orthogonalEdgeStyle;rounded=0;orthogonalLoop=1;jettySize=auto;html=1;exitX=0.5;exitY=1;exitDx=0;exitDy=0;entryX=0.5;entryY=0;entryDx=0;entryDy=0;" edge="1" parent="1" source="A1cnm3-KWDeCmwyzPE66-128" target="A1cnm3-KWDeCmwyzPE66-77">
          <mxGeometry relative="1" as="geometry" />
        </mxCell>
        <mxCell id="A1cnm3-KWDeCmwyzPE66-128" value="Change Password" style="shape=parallelogram;perimeter=parallelogramPerimeter;whiteSpace=wrap;html=1;fixedSize=1;fillColor=#ffe6cc;strokeColor=#d79b00;" vertex="1" parent="1">
          <mxGeometry x="460" y="1210" width="120" height="60" as="geometry" />
        </mxCell>
        <mxCell id="A1cnm3-KWDeCmwyzPE66-134" value="" style="edgeStyle=orthogonalEdgeStyle;rounded=0;orthogonalLoop=1;jettySize=auto;html=1;exitX=1;exitY=0.5;exitDx=0;exitDy=0;entryX=0;entryY=0.5;entryDx=0;entryDy=0;" edge="1" parent="1" source="A1cnm3-KWDeCmwyzPE66-66" target="A1cnm3-KWDeCmwyzPE66-133">
          <mxGeometry relative="1" as="geometry">
            <mxPoint x="460" y="1120" as="sourcePoint" />
            <mxPoint x="700" y="1120" as="targetPoint" />
          </mxGeometry>
        </mxCell>
        <mxCell id="A1cnm3-KWDeCmwyzPE66-135" value="4" style="edgeLabel;html=1;align=center;verticalAlign=middle;resizable=0;points=[];" connectable="0" vertex="1" parent="A1cnm3-KWDeCmwyzPE66-134">
          <mxGeometry x="-0.1745" y="2" relative="1" as="geometry">
            <mxPoint as="offset" />
          </mxGeometry>
        </mxCell>
        <mxCell id="A1cnm3-KWDeCmwyzPE66-133" value="Delete Account" style="shape=parallelogram;perimeter=parallelogramPerimeter;whiteSpace=wrap;html=1;fixedSize=1;fillColor=#ffe6cc;strokeColor=#d79b00;" vertex="1" parent="1">
          <mxGeometry x="520" y="1090" width="120" height="60" as="geometry" />
        </mxCell>
        <mxCell id="A1cnm3-KWDeCmwyzPE66-136" value="Flowchart for account settings" style="text;html=1;strokeColor=none;fillColor=none;align=center;verticalAlign=middle;whiteSpace=wrap;rounded=0;" vertex="1" parent="1">
          <mxGeometry x="390" y="780" width="60" height="30" as="geometry" />
        </mxCell>
        <mxCell id="A1cnm3-KWDeCmwyzPE66-137" value="Flowchart to change display display name" style="text;html=1;strokeColor=none;fillColor=none;align=center;verticalAlign=middle;whiteSpace=wrap;rounded=0;" vertex="1" parent="1">
          <mxGeometry x="910" y="780" width="60" height="30" as="geometry" />
        </mxCell>
        <mxCell id="A1cnm3-KWDeCmwyzPE66-138" value="Flowchart to change username" style="text;html=1;strokeColor=none;fillColor=none;align=center;verticalAlign=middle;whiteSpace=wrap;rounded=0;" vertex="1" parent="1">
          <mxGeometry x="1190" y="780" width="60" height="30" as="geometry" />
        </mxCell>
        <mxCell id="A1cnm3-KWDeCmwyzPE66-139" value="Flowchart to change password" style="text;html=1;strokeColor=none;fillColor=none;align=center;verticalAlign=middle;whiteSpace=wrap;rounded=0;" vertex="1" parent="1">
          <mxGeometry x="1470" y="790" width="60" height="30" as="geometry" />
        </mxCell>
        <mxCell id="A1cnm3-KWDeCmwyzPE66-140" value="Flowhchart to delete account" style="text;html=1;strokeColor=none;fillColor=none;align=center;verticalAlign=middle;whiteSpace=wrap;rounded=0;" vertex="1" parent="1">
          <mxGeometry x="1750" y="790" width="60" height="30" as="geometry" />
        </mxCell>
        <mxCell id="A1cnm3-KWDeCmwyzPE66-141" value="" style="shape=link;html=1;rounded=0;width=25;fillColor=#f8cecc;strokeColor=#ff0800;" edge="1" parent="1">
          <mxGeometry width="100" relative="1" as="geometry">
            <mxPoint y="1445" as="sourcePoint" />
            <mxPoint x="1930" y="1445" as="targetPoint" />
          </mxGeometry>
        </mxCell>
        <mxCell id="g_dbiT4o4NIP0Kv6wzmf-2" value="&lt;font style=&quot;font-size: 20px;&quot;&gt;Start&lt;/font&gt;" style="ellipse;whiteSpace=wrap;html=1;fillColor=#d5e8d4;strokeColor=#82b366;" vertex="1" parent="1">
          <mxGeometry x="360" y="1520" width="120" height="80" as="geometry" />
        </mxCell>
        <mxCell id="g_dbiT4o4NIP0Kv6wzmf-5" value="" style="edgeStyle=orthogonalEdgeStyle;rounded=0;orthogonalLoop=1;jettySize=auto;html=1;" edge="1" parent="1" source="g_dbiT4o4NIP0Kv6wzmf-3" target="g_dbiT4o4NIP0Kv6wzmf-4">
          <mxGeometry relative="1" as="geometry" />
        </mxCell>
        <mxCell id="g_dbiT4o4NIP0Kv6wzmf-3" value="openPokedex" style="shape=process;whiteSpace=wrap;html=1;backgroundOutline=1;fillColor=#e1d5e7;strokeColor=#9673a6;" vertex="1" parent="1">
          <mxGeometry x="880" y="1530" width="120" height="60" as="geometry" />
        </mxCell>
        <mxCell id="g_dbiT4o4NIP0Kv6wzmf-8" value="" style="edgeStyle=orthogonalEdgeStyle;rounded=0;orthogonalLoop=1;jettySize=auto;html=1;" edge="1" parent="1" source="g_dbiT4o4NIP0Kv6wzmf-4" target="g_dbiT4o4NIP0Kv6wzmf-7">
          <mxGeometry relative="1" as="geometry" />
        </mxCell>
        <mxCell id="g_dbiT4o4NIP0Kv6wzmf-4" value="with open(pokedex.csv) as f:" style="rounded=0;whiteSpace=wrap;html=1;fillColor=#dae8fc;strokeColor=#6c8ebf;" vertex="1" parent="1">
          <mxGeometry x="880" y="1650" width="120" height="60" as="geometry" />
        </mxCell>
        <mxCell id="g_dbiT4o4NIP0Kv6wzmf-7" value="pokedex.csv" style="shape=parallelogram;perimeter=parallelogramPerimeter;whiteSpace=wrap;html=1;fixedSize=1;fillColor=#ffe6cc;strokeColor=#d79b00;" vertex="1" parent="1">
          <mxGeometry x="880" y="1770" width="120" height="60" as="geometry" />
        </mxCell>
      </root>
    </mxGraphModel>
  </diagram>
</mxfile>
